<?xml version="1.0" encoding="UTF-8"?>
<svg version="1.1" xmlns="http://www.w3.org/2000/svg" width="512" height="512">
    <path
        d="M0 0 C1.10304474 -0.00860046 2.20608948 -0.01720093 3.34255981 -0.02606201 C5.16661095 -0.03245193 5.16661095 -0.03245193 7.0275116 -0.03897095 C8.94246429 -0.05123718 8.94246429 -0.05123718 10.89610291 -0.06375122 C15.14064925 -0.08999318 19.38520549 -0.10529267 23.62980652 -0.11953735 C25.09371636 -0.12489835 26.55762615 -0.13027586 28.02153587 -0.13566971 C34.11822181 -0.15731202 40.2149051 -0.17604224 46.31161976 -0.1872921 C55.02837445 -0.20348414 63.74467998 -0.23652972 72.46126539 -0.29369295 C78.59903758 -0.33255818 84.73669056 -0.35194494 90.87458247 -0.35721266 C94.53437841 -0.36084694 98.19369558 -0.3726581 101.85335732 -0.4053154 C105.95073612 -0.44134989 110.04716817 -0.43698348 114.1446991 -0.42959595 C115.33846664 -0.44600128 116.53223419 -0.46240662 117.76217651 -0.47930908 C132.78488572 -0.36911578 143.31409787 5.82898931 153.86027527 15.96640015 C158.19253876 20.41900429 162.0000456 25.2450111 165.79777527 30.15390015 C166.43070496 30.95440796 167.06363464 31.75491577 167.71574402 32.5796814 C176.79777527 44.10166134 176.79777527 44.10166134 176.79777527 47.15390015 C177.94114979 47.15113477 179.08452431 47.14836939 180.26254654 47.14552021 C208.10632987 47.07886863 235.95010282 47.02959773 263.79394913 46.99846363 C266.47653968 46.99540418 269.15913016 46.99228022 271.84172058 46.98910522 C272.84184556 46.98792483 272.84184556 46.98792483 273.86217508 46.98672058 C284.64026005 46.97368746 295.41829673 46.95004523 306.19635311 46.92244176 C317.2660101 46.89432915 328.33564053 46.87793591 339.40533137 46.87163466 C345.61864501 46.86772984 351.83184933 46.85857692 358.04512787 46.83670998 C363.89897903 46.81627583 369.75267632 46.81008037 375.60655975 46.8145771 C377.74945412 46.813755 379.89235388 46.80783087 382.03521729 46.79628372 C411.35729168 46.64609084 411.35729168 46.64609084 420.79777527 55.15390015 C424.14301405 59.58170891 425.92052519 64.08063153 425.92920303 69.61809635 C425.93304418 70.53751894 425.93688532 71.45694153 425.94084287 72.40422541 C425.93997638 73.41587604 425.9391099 74.42752667 425.93821716 75.46983337 C425.94267385 77.08018153 425.94267385 77.08018153 425.94722056 78.72306198 C425.95592737 82.33876908 425.9574175 85.95444314 425.95890808 89.57015991 C425.96353494 92.15533011 425.96855942 94.74049962 425.97395325 97.32566833 C425.9875407 104.36312604 425.9935624 111.40057805 425.99796391 118.43804669 C426.00072656 122.83376451 426.00496405 127.22948013 426.00946808 131.62519646 C426.02166304 143.79884611 426.03196076 155.972494 426.03534317 168.14614964 C426.03556274 168.92547802 426.0357823 169.70480641 426.03600852 170.50775081 C426.0362268 171.28893818 426.03644508 172.07012556 426.03666997 172.87498528 C426.03711343 174.45794714 426.03756 176.04090899 426.03800964 177.62387085 C426.03823107 178.40907354 426.0384525 179.19427623 426.03868064 180.00327294 C426.04262555 192.71601064 426.06006917 205.4286909 426.08336917 218.14140642 C426.10710533 231.19771525 426.11954611 244.25399529 426.12071109 257.31032604 C426.12162676 264.6391064 426.12735165 271.967812 426.1455307 279.29657173 C426.16257867 286.19366493 426.16416732 293.09061428 426.15539169 299.9877224 C426.1546212 302.51685592 426.15896562 305.04599706 426.16884995 307.57511139 C426.18157045 311.03326979 426.17569147 314.49092624 426.16526794 317.94908142 C426.17735255 319.44313479 426.17735255 319.44313479 426.18968129 320.96737105 C426.13406628 328.88089703 424.99804732 337.17008058 419.98527527 343.59140015 C419.52507996 344.20886108 419.06488464 344.82632202 418.59074402 345.4624939 C414.11575955 349.68399341 409.61158458 350.52928524 403.62182999 350.53421688 C402.91891618 350.5388768 402.21600237 350.54353672 401.49178815 350.54833785 C399.13650091 350.56028837 396.78179047 350.55089247 394.42649841 350.5415802 C392.72077609 350.54575312 391.01505654 350.5512304 389.30934215 350.55790001 C384.6218976 350.57237926 379.93462851 350.56810212 375.24717426 350.5607332 C370.19180962 350.55600987 365.13648338 350.56850409 360.08113098 350.57875061 C350.17646319 350.5959613 340.27185877 350.59677378 330.3671799 350.59153771 C322.31629545 350.58749841 314.26542975 350.58893671 306.2145462 350.59428596 C304.49659713 350.5954086 304.49659713 350.5954086 302.74394201 350.59655391 C300.41733052 350.59808537 298.09071903 350.59962372 295.76410756 350.60116888 C273.93637303 350.61490254 252.10867433 350.60945051 230.28094062 350.59798367 C210.31294184 350.58805399 190.34503575 350.60098585 170.37705126 350.62491786 C149.8761184 350.64930351 129.37522872 350.65891781 108.87428164 350.65226513 C97.36375913 350.64877126 85.85330788 350.65101587 74.34279633 350.66851616 C64.54229504 350.68323159 54.74191518 350.68388233 44.94141629 350.66644525 C39.9417018 350.65792683 34.9422043 350.65580628 29.94250107 350.6710968 C25.3628951 350.68492899 20.78369232 350.68019953 16.20410976 350.66085757 C14.55001833 350.65709269 12.89589472 350.66003358 11.24183193 350.67046922 C0.94898186 350.73077457 -8.15917639 350.24526802 -16.63972473 343.71640015 C-20.73613072 339.61999416 -22.5751327 336.48537409 -22.58812809 330.65270901 C-22.59780143 329.55288454 -22.60747477 328.45306008 -22.61744124 327.31990761 C-22.61279543 326.11700854 -22.60814963 324.91410947 -22.60336304 323.67475891 C-22.61015971 322.39263458 -22.61695638 321.11051026 -22.623959 319.78953367 C-22.64231199 316.23244374 -22.64191242 312.67556533 -22.63837588 309.11843884 C-22.6377638 305.28114569 -22.65432102 301.44392046 -22.66854858 297.60665894 C-22.69347173 290.0881518 -22.70171335 282.56971521 -22.70338572 275.05117022 C-22.70481149 268.93725129 -22.71097723 262.82335562 -22.72048759 256.70944405 C-22.74691211 239.36843949 -22.76074553 222.02749063 -22.75849617 204.68646579 C-22.7583763 203.75154188 -22.75825644 202.81661797 -22.75813293 201.85336304 C-22.75794897 200.44926041 -22.75794897 200.44926041 -22.75776129 199.01679207 C-22.75654282 183.85788272 -22.78522687 168.69919726 -22.82754803 153.54035264 C-22.87067818 137.96854957 -22.8913563 122.39685558 -22.88876671 106.82499129 C-22.88777189 98.08541481 -22.8959639 89.34607282 -22.92830086 80.60655022 C-22.95566779 73.16255161 -22.96210001 65.71889369 -22.94177259 58.27486645 C-22.93200104 54.47978218 -22.93171626 50.68535084 -22.95783234 46.89032936 C-22.98591419 42.76703863 -22.96703682 38.64524848 -22.94393921 34.52192688 C-22.9593699 33.33464286 -22.97480059 32.14735885 -22.99069887 30.92409652 C-22.87462922 21.51764782 -20.34614061 13.5230352 -13.76762205 6.58697838 C-9.11948802 2.32994148 -6.36209638 0.0368496 0 0 Z "
        fill="#121313" transform="translate(55.20222473144531,79.84609985351563)" />
    <path
        d="M0 0 C1.10304474 -0.00860046 2.20608948 -0.01720093 3.34255981 -0.02606201 C5.16661095 -0.03245193 5.16661095 -0.03245193 7.0275116 -0.03897095 C8.94246429 -0.05123718 8.94246429 -0.05123718 10.89610291 -0.06375122 C15.14064925 -0.08999318 19.38520549 -0.10529267 23.62980652 -0.11953735 C25.09371636 -0.12489835 26.55762615 -0.13027586 28.02153587 -0.13566971 C34.11822181 -0.15731202 40.2149051 -0.17604224 46.31161976 -0.1872921 C55.02837445 -0.20348414 63.74467998 -0.23652972 72.46126539 -0.29369295 C78.59903758 -0.33255818 84.73669056 -0.35194494 90.87458247 -0.35721266 C94.53437841 -0.36084694 98.19369558 -0.3726581 101.85335732 -0.4053154 C105.95073612 -0.44134989 110.04716817 -0.43698348 114.1446991 -0.42959595 C115.33846664 -0.44600128 116.53223419 -0.46240662 117.76217651 -0.47930908 C132.78488572 -0.36911578 143.31409787 5.82898931 153.86027527 15.96640015 C158.19253876 20.41900429 162.0000456 25.2450111 165.79777527 30.15390015 C166.43070496 30.95440796 167.06363464 31.75491577 167.71574402 32.5796814 C176.79777527 44.10166134 176.79777527 44.10166134 176.79777527 47.15390015 C177.94114979 47.15113477 179.08452431 47.14836939 180.26254654 47.14552021 C208.10632987 47.07886863 235.95010282 47.02959773 263.79394913 46.99846363 C266.47653968 46.99540418 269.15913016 46.99228022 271.84172058 46.98910522 C272.84184556 46.98792483 272.84184556 46.98792483 273.86217508 46.98672058 C284.64026005 46.97368746 295.41829673 46.95004523 306.19635311 46.92244176 C317.2660101 46.89432915 328.33564053 46.87793591 339.40533137 46.87163466 C345.61864501 46.86772984 351.83184933 46.85857692 358.04512787 46.83670998 C363.89897903 46.81627583 369.75267632 46.81008037 375.60655975 46.8145771 C377.74945412 46.813755 379.89235388 46.80783087 382.03521729 46.79628372 C411.35729168 46.64609084 411.35729168 46.64609084 420.79777527 55.15390015 C425.20012594 60.98091824 425.91321226 66.11224337 425.79777527 73.15390015 C425.28215027 72.49390015 424.76652527 71.83390015 424.23527527 71.15390015 C423.02871277 69.66890015 423.02871277 69.66890015 421.79777527 68.15390015 C421.26539246 67.49132202 420.73300964 66.8287439 420.18449402 66.14608765 C415.44420659 60.44933424 411.25895462 57.29627774 403.79777527 56.15390015 C400.72484217 56.00250411 397.65493386 55.9991455 394.57870483 55.99568176 C393.64746632 55.99074379 392.71622781 55.98580581 391.75676996 55.9807182 C388.63526765 55.9653558 385.5137859 55.95698595 382.39225769 55.94857788 C380.15509358 55.93899837 377.91793128 55.92898825 375.68077087 55.9185791 C369.60482601 55.89153189 363.52887338 55.87052129 357.4529016 55.85057712 C351.1040847 55.82871647 344.75529173 55.80132816 338.40649414 55.77452087 C327.74957783 55.73026976 317.09265392 55.68943433 306.43571472 55.6512146 C295.45979351 55.61184153 284.48388324 55.57041097 273.50798035 55.5262146 C272.83124597 55.52349033 272.15451159 55.52076606 271.45727011 55.51795923 C268.06223897 55.50427945 264.66720799 55.49055924 261.2721771 55.47681892 C233.11406596 55.36291013 204.95593093 55.2561612 176.79777527 55.15390015 C176.79777527 55.81390015 176.79777527 56.47390015 176.79777527 57.15390015 C174.53962679 58.9521646 172.28499787 60.62858024 169.92277527 62.27890015 C168.94631042 62.98079468 168.94631042 62.98079468 167.95011902 63.6968689 C163.06189699 67.15390015 163.06189699 67.15390015 160.79777527 67.15390015 C160.79777527 67.81390015 160.79777527 68.47390015 160.79777527 69.15390015 C159.95215027 69.56640015 159.10652527 69.97890015 158.23527527 70.40390015 C154.79277444 72.07895115 154.79277444 72.07895115 151.73527527 74.15390015 C139.64364968 81.10525318 123.30408728 80.30199662 109.81242371 80.29574585 C108.5750647 80.29922028 107.33770569 80.3026947 106.06285095 80.30627441 C103.39803817 80.31358 100.7332741 80.31927694 98.06845856 80.32256508 C93.84783963 80.32854038 89.62730211 80.34513695 85.40672302 80.36390686 C83.95473866 80.37024158 82.50275425 80.37656723 81.05076981 80.38288403 C79.96121262 80.38763274 79.96121262 80.38763274 78.84964418 80.39247739 C69.04298009 80.43438549 59.23635915 80.46756449 49.42961121 80.47982788 C42.78585609 80.48822049 36.14230865 80.51074118 29.49865746 80.54918355 C25.99299152 80.56887634 22.48763547 80.58137085 18.98191071 80.57634926 C15.07625276 80.57082062 11.17111908 80.59615431 7.26554871 80.62387085 C6.11626892 80.61726944 4.96698914 80.61066803 3.78288269 80.60386658 C-4.00319223 80.69453348 -9.46293697 81.81850758 -15.44441223 87.15390015 C-16.25265442 88.14390015 -16.25265442 88.14390015 -17.07722473 89.15390015 C-17.63152161 89.81390015 -18.18581848 90.47390015 -18.75691223 91.15390015 C-20.15579913 93.08965715 -21.16240647 95.01063545 -22.20222473 97.15390015 C-22.34189532 87.4521254 -22.44818275 77.75070231 -22.51309776 68.04813766 C-22.54427066 63.5416867 -22.58648215 59.03592887 -22.65486145 54.52987671 C-22.72056128 50.17260278 -22.75603607 45.81599101 -22.77148819 41.45825958 C-22.78248465 39.80458415 -22.80395624 38.15094064 -22.83660507 36.49755096 C-23.05468968 24.98442071 -22.16966756 15.40170368 -13.76701355 6.60427856 C-9.13379321 2.32515742 -6.36254695 0.03685221 0 0 Z "
        fill="#09B8E5" transform="translate(55.20222473144531,79.84609985351563)" />
</svg>