<?xml version="1.0" encoding="utf-8" ?>
<svg xmlns="http://www.w3.org/2000/svg" xmlns:xlink="http://www.w3.org/1999/xlink" width="512" height="512">
	<path fill="black"
		d="M307.812 263.223L218.462 263.23C211.281 263.234 203.877 263.43 196.806 261.994C178.593 258.292 163.775 243.224 162.863 224.206C162.559 217.863 162.993 211.306 162.992 204.94L162.981 126.45C162.982 118.584 162.394 110.093 163.961 102.361C167.858 83.142 185.388 69.4716 204.755 68.652C210.23 68.2188 216.049 68.6556 221.561 68.6573L292.286 68.6408C299.462 68.641 307.254 68.0735 314.328 69.2984C332.404 72.4282 346.731 87.6354 348.396 106.033C349.022 112.942 348.656 120.107 348.651 127.042L348.638 199.062C348.638 207.93 349.188 217.245 347.56 226C343.916 245.59 328.027 261.54 307.812 263.223ZM248.231 86.1648L248.231 100.758L232.963 100.758L232.963 117.749L248.231 117.749C248.201 122.229 248.034 126.743 248.231 131.219L258.911 131.254C260.629 131.262 262.527 131.434 264.226 131.219L264.226 117.749L279.457 117.749L279.457 100.758L264.226 100.758L264.226 86.1648C258.915 86.1588 253.533 85.9774 248.231 86.1648ZM210.616 147.785C187.408 151.49 187.483 185.621 215.453 185.338C240.585 180.425 233.935 145 210.616 147.785ZM296.607 147.785C271.088 153.638 277.698 188.074 302.003 185.338C326.279 181.314 321.145 145.609 296.607 147.785ZM210.616 217.321C207.74 217.668 209.236 230.79 209.228 234.054L300.313 234.054L301.259 234.068C301.966 232.695 301.48 219.841 301.486 217.321L210.616 217.321Z" />
	<path fill="black"
		d="M366.224 201.873C366.013 199.387 366.198 196.791 366.204 194.293L366.226 179.846C366.24 168.626 365.868 157.294 366.224 146.085C391.544 149.167 402.836 175.991 384.885 193.957C379.393 198.663 373.454 201.173 366.224 201.873Z" />
	<path fill="black"
		d="M127.918 194.971C110.4 179.753 118.884 147.349 143.962 147.785L146.508 147.785C146.506 165.804 146.756 183.858 146.508 201.873C139.677 201.746 133.258 199.16 127.918 194.971Z" />
	<path fill="black"
		d="M311.285 306.632C315.828 296.979 317.216 289.965 317.3 279.413C338.073 279.415 358.862 279.626 379.627 279.166C391.237 278.909 402.786 283.74 411.1 291.752C428.518 308.536 424.66 331.143 424.702 353.256C424.716 361.085 427.684 377.651 415.245 377.018C405.638 376.53 407.016 366.439 407.032 359.734L407.074 336.868C407.084 330.549 407.703 323.383 406.159 317.238C402.978 304.572 391.427 296.8 378.636 296.417C371.547 296.204 373.965 302.367 374.068 307.504C374.248 316.457 374.08 325.449 374.079 334.406L374.08 413.088C374.129 430.352 375.976 433.955 358.237 433.908L148.786 433.918C135.167 433.961 137.921 425.144 137.938 414.59L137.952 306.632L137.952 297.142C123.326 295.762 108.368 302.28 105.623 318.258C104.656 323.885 105.164 330.198 105.171 335.904L105.207 360.487C105.208 364.906 105.824 370.617 102.819 374.212C97.4767 380.605 87.089 377.296 87.0396 366.268L87.0842 341.884C87.0689 332.125 86.1449 321.375 88.6691 311.9C92.682 296.836 104.904 284.66 120.022 280.852C129.441 278.48 142.518 279.41 152.404 279.41L194.229 279.413C192.94 311.535 220.301 338.653 251.797 340.409C271.493 341.506 284.796 335.869 298.912 323.245C298.659 330.503 298.9 337.853 298.912 345.12C277.156 347.738 276.012 367.881 276.001 384.395C275.99 401.396 278.109 400.687 293.092 400.71L309.887 400.721C315.608 400.721 323.588 401.203 328.989 400.536C337.59 399.474 335.792 390.002 335.761 383.885C335.689 369.723 333.511 348.036 315.307 345.12L315.322 328.451C315.331 320.69 316.086 313.218 311.285 306.632Z" />
	<path fill="black"
		d="M210.616 279.413L294.627 279.413C296.91 279.348 299.203 279.402 301.486 279.413C299.992 289.628 299.45 296.723 293.06 305.412C277.275 326.876 248.53 330.225 227.361 314.462C216.169 306.068 210.711 293.274 210.616 279.413Z" />
	<path fill="black"
		d="M293.229 383.718C293.445 373.5 291.027 361.982 304.631 360.592C319.821 359.901 318.537 372.499 318.471 383.718L307.812 383.718C302.985 383.771 298.035 383.328 293.229 383.718Z" />
</svg>